<svg width="0" height="0" class="hidden">
  <symbol fill="currentColor" xmlns="http://www.w3.org/2000/svg" viewBox="0 0 10 10" id="comment">
    <path d="M8.625 0H1.125C0.826631 0 0.540483 0.118526 0.329505 0.329505C0.118526 0.540483 0 0.826631 0 1.125V7.125C0 7.42337 0.118526 7.70952 0.329505 7.9205C0.540483 8.13147 0.826631 8.25 1.125 8.25H7.1025C7.19853 8.24937 7.29115 8.28561 7.36125 8.35125L9.15375 9.675C9.21763 9.72292 9.29515 9.7492 9.375 9.75C9.4337 9.74965 9.4915 9.73552 9.54375 9.70875C9.60559 9.67759 9.6576 9.62991 9.694 9.571C9.73041 9.51209 9.74979 9.44425 9.75 9.375V1.125C9.75 0.826631 9.63147 0.540483 9.4205 0.329505C9.20952 0.118526 8.92337 0 8.625 0ZM9 8.625L7.8225 7.7625C7.62062 7.59343 7.36583 7.50054 7.1025 7.5H1.125C1.02554 7.5 0.930161 7.46049 0.859835 7.39017C0.789509 7.31984 0.75 7.22446 0.75 7.125V1.125C0.75 1.02554 0.789509 0.930161 0.859835 0.859835C0.930161 0.789509 1.02554 0.75 1.125 0.75H8.625C8.72446 0.75 8.81984 0.789509 8.89017 0.859835C8.96049 0.930161 9 1.02554 9 1.125V8.625Z" ></path>
  </symbol>
  <symbol fill="none" xmlns="http://www.w3.org/2000/svg" viewBox="0 0 10 9" id="love">
    <path d="M4.87032 9.00013C4.70732 8.99975 4.54642 8.96323 4.39923 8.89319C4.25203 8.82316 4.1222 8.72136 4.01907 8.59513L0.569071 4.47013C0.206442 3.97341 0.00760678 3.37605 0.000213891 2.76109C-0.007179 2.14614 0.177238 1.54416 0.527821 1.03888L0.666571 0.866376C0.874791 0.594315 1.14344 0.374421 1.45129 0.224077C1.75914 0.0737333 2.09774 -0.00293739 2.44032 0.000126395C2.79068 0.0214692 3.13119 0.124489 3.43463 0.300949C3.73806 0.477409 3.996 0.722414 4.18782 1.01638L4.87032 1.99888L5.55282 1.01638C5.74464 0.722414 6.00258 0.477409 6.30602 0.300949C6.60945 0.124489 6.94996 0.0214692 7.30032 0.000126395C7.64223 -0.00352814 7.98033 0.0721125 8.28809 0.221111C8.59584 0.370109 8.86488 0.588409 9.07407 0.858876L9.21282 1.03138C9.5631 1.53591 9.74768 2.13694 9.74096 2.75111C9.73424 3.36528 9.53655 3.96213 9.17532 4.45888L5.72157 8.58388C5.61955 8.71218 5.4902 8.81611 5.34295 8.88812C5.19569 8.96012 5.03423 8.99839 4.87032 9.00013ZM2.36532 0.750126C2.14585 0.754597 1.93033 0.809315 1.73531 0.910077C1.54028 1.01084 1.37095 1.15496 1.24032 1.33138L1.12032 1.50013C0.877549 1.8702 0.75135 2.30458 0.758035 2.74713C0.76472 3.18968 0.903981 3.62005 1.15782 3.98263L4.60407 8.10763C4.63615 8.14854 4.67638 8.18233 4.72222 8.20686C4.76805 8.23139 4.81849 8.24613 4.87032 8.25013C4.92351 8.2486 4.97576 8.23577 5.0236 8.21249C5.07145 8.18922 5.11379 8.15603 5.14782 8.11513L8.59782 3.99013C8.85104 3.62528 8.98861 3.19268 8.99262 2.74859C8.99663 2.3045 8.86691 1.86948 8.62032 1.50013L8.47782 1.32763C8.34474 1.14774 8.17117 1.00172 7.97116 0.901387C7.77116 0.801057 7.55033 0.749238 7.32657 0.750126C7.0923 0.767531 6.86539 0.839716 6.66412 0.960867C6.46285 1.08202 6.29286 1.24875 6.16782 1.44763L5.17782 2.86888C5.14326 2.91839 5.09726 2.95882 5.04372 2.98674C4.99019 3.01466 4.9307 3.02924 4.87032 3.02924C4.80994 3.02924 4.75046 3.01466 4.69692 2.98674C4.64338 2.95882 4.59738 2.91839 4.56282 2.86888L3.57282 1.44763C3.44779 1.24875 3.27779 1.08202 3.07652 0.960867C2.87525 0.839716 2.64834 0.767531 2.41407 0.750126H2.36532Z" fill="#787878"></path>
  </symbol>
  <symbol fill="none" xmlns="http://www.w3.org/2000/svg" viewBox="0 0 10 9" id="love-blue">
    <path d="M4.87032 9.00013C4.70732 8.99975 4.54642 8.96323 4.39923 8.89319C4.25203 8.82316 4.1222 8.72136 4.01907 8.59513L0.569071 4.47013C0.206442 3.97341 0.00760678 3.37605 0.000213891 2.76109C-0.007179 2.14614 0.177238 1.54416 0.527821 1.03888L0.666571 0.866376C0.874791 0.594315 1.14344 0.374421 1.45129 0.224077C1.75914 0.0737333 2.09774 -0.00293739 2.44032 0.000126395C2.79068 0.0214692 3.13119 0.124489 3.43463 0.300949C3.73806 0.477409 3.996 0.722414 4.18782 1.01638L4.87032 1.99888L5.55282 1.01638C5.74464 0.722414 6.00258 0.477409 6.30602 0.300949C6.60945 0.124489 6.94996 0.0214692 7.30032 0.000126395C7.64223 -0.00352814 7.98033 0.0721125 8.28809 0.221111C8.59584 0.370109 8.86488 0.58841 9.07407 0.858876L9.21282 1.03138C9.5631 1.53591 9.74768 2.13694 9.74096 2.75111C9.73424 3.36528 9.53655 3.96213 9.17532 4.45888L5.72157 8.58388C5.61955 8.71218 5.4902 8.81611 5.34295 8.88812C5.19569 8.96012 5.03423 8.99839 4.87032 9.00013ZM2.36532 0.750126C2.14585 0.754597 3.93286 1.89811 3.73784 1.99888C3.54281 2.09964 0.797202 2.69246 0.666571 2.86888L1.12032 1.50013C0.877549 1.8702 4.86364 2.58669 4.87032 3.02924C4.87701 3.47179 5.24616 5.63743 5.5 6L4.60407 8.10763C4.63615 8.14854 4.14199 6.47547 4.18782 6.5C4.23366 6.52453 4.81849 3.02524 4.87032 3.02924C4.92351 3.02771 5.2951 6.39274 5.34295 6.36946C5.39079 6.34619 5.11379 8.15603 5.14782 8.11513L1.15782 3.7561C1.41104 3.39126 4.86631 3.47333 4.87032 3.02924C4.87433 2.58515 8.86691 1.86948 8.62032 1.50013L8.12337 4.71227C7.9903 4.53238 8.26709 4.72504 8.06708 4.62471C7.86707 4.52438 8.29084 4.99911 8.06708 5C7.83281 5.0174 6.86539 0.839716 6.66412 0.960867C6.46285 1.08202 7.90147 0.551248 7.77643 0.750126L8.06708 4.62471C8.03252 4.67422 5.09726 2.95882 5.04372 2.98674C4.99019 3.01466 4.9307 3.02924 4.87032 3.02924C4.80994 3.02924 4.75046 3.01466 4.69692 2.98674C4.64338 2.95882 4.59738 2.91839 4.56282 2.86888L1 2C0.874965 1.80112 3.27779 1.08202 3.07652 0.960867C2.87525 0.839716 5.10459 3.04664 4.87032 3.02924L3.35596 2.3702L2.36532 0.750126Z" fill="#0090FF"></path>
  </symbol>
  <symbol fill="none" xmlns="http://www.w3.org/2000/svg" viewBox="0 0 14 14" id="love-plus1">
    <path d="M6.87022 13.6958C6.64028 13.6953 6.41332 13.6438 6.20568 13.545C5.99804 13.4462 5.81489 13.3026 5.66942 13.1245L0.802748 7.30569C0.291214 6.60501 0.0107303 5.76235 0.000301721 4.89488C-0.0101269 4.02741 0.250017 3.17824 0.74456 2.46547L0.940284 2.22214C1.23401 1.83836 1.61298 1.52817 2.04723 1.31609C2.48149 1.10401 2.95913 0.995856 3.44239 1.00018C3.93662 1.03029 4.41695 1.17561 4.84499 1.42453C5.27302 1.67345 5.63687 2.01906 5.90746 2.43373L6.87022 3.81967L7.83297 2.43373C8.10356 2.01906 8.46742 1.67345 8.89545 1.42453C9.32348 1.17561 9.80382 1.03029 10.298 1.00018C10.7804 0.995023 11.2573 1.10172 11.6914 1.31191C12.1256 1.52209 12.5051 1.83003 12.8002 2.21156L12.9959 2.45489C13.49 3.1666 13.7504 4.01443 13.7409 4.8808C13.7314 5.74716 13.4525 6.5891 12.943 7.28982L8.07102 13.1087C7.9271 13.2897 7.74464 13.4363 7.53692 13.5378C7.32919 13.6394 7.10143 13.6934 6.87022 13.6958ZM3.33659 2.05815C3.027 2.06446 5.54781 3.67754 5.2727 3.81967C4.9976 3.96181 1.12456 4.79807 0.940284 5.04692L1.58036 3.11612C1.2379 3.63816 6.86079 4.64886 6.87022 5.27314C6.87965 5.89741 7.40039 8.95232 7.75846 9.46378L6.49464 12.4369C6.53989 12.4946 5.84281 10.1345 5.90746 10.1691C5.97212 10.2037 6.7971 5.26749 6.87022 5.27314C6.94524 5.27098 7.46943 10.0178 7.53692 9.98495C7.60441 9.95212 7.21366 12.5051 7.26167 12.4474L1.63326 6.29847C1.99046 5.78381 6.86456 5.89958 6.87022 5.27314C6.87588 4.64669 12.5079 3.63715 12.1601 3.11612L11.4591 7.64726C11.2713 7.39351 11.6618 7.66528 11.3797 7.52375C11.0975 7.38223 11.6953 8.0519 11.3797 8.05315C11.0492 8.0777 9.68452 2.18453 9.40061 2.35543C9.11669 2.52633 11.146 1.77761 10.9697 2.05815L11.3797 7.52375C11.3309 7.5936 7.19034 5.1738 7.11482 5.21318C7.0393 5.25257 6.95539 5.27314 6.87022 5.27314C6.78505 5.27314 6.70113 5.25257 6.62561 5.21318C6.55009 5.1738 6.4852 5.11676 6.43645 5.04692L1.41063 3.82126C1.23425 3.54072 4.62374 2.52633 4.33983 2.35543C4.05592 2.18453 7.20069 5.29769 6.87022 5.27314L4.73402 4.34348L3.33659 2.05815Z" fill="#0090FF"></path>
    <path d="M4.85547 5.82812V4.28906H3.82031V5.82812H2.38672V6.82031H3.82031V8.42969H4.85547V6.82031H6.28516V5.82812H4.85547ZM10.0156 9V3.3125H9.95703L7.48047 4.20703V5.15234L8.91797 4.63672V9H10.0156Z" fill="white"></path>
  </symbol>
  <symbol fill="none" xmlns="http://www.w3.org/2000/svg" viewBox="0 0 24 19" id="download">
    <path d="M16.4592 1.91522C18.0128 0.361594 20.5306 0.361594 22.0842 1.91522V1.91522C23.6378 3.46884 23.6378 5.98659 22.0842 7.54022L15.4703 14.1541C13.9167 15.7077 11.399 15.7077 9.84533 14.1541V14.1541C8.29171 12.6005 8.29171 10.0827 9.84533 8.52909L10.8342 7.54022" stroke="#323232" stroke-width="1.5" stroke-linecap="round" stroke-linejoin="round"></path>
    <path d="M7.54022 16.4592C5.98659 18.0128 3.46884 18.0128 1.91522 16.4592V16.4592C0.361594 14.9056 0.361594 12.3878 1.91522 10.8342L8.52909 4.22033C10.0827 2.66671 12.6005 2.66671 14.1541 4.22033V4.22033C15.7077 5.77396 15.7077 8.29171 14.1541 9.84533L13.1247 10.8747" stroke="#323232" stroke-width="1.5" stroke-linecap="round" stroke-linejoin="round"></path>
  </symbol>
  <symbol fill="none" xmlns="http://www.w3.org/2000/svg" viewBox="0 0 19 19" id="close">
    <path d="M2 2L17 17" stroke="#787878" stroke-width="3" stroke-linecap="round" stroke-linejoin="round"></path>
    <path d="M17 2L2 17" stroke="#787878" stroke-width="3" stroke-linecap="round" stroke-linejoin="round"></path>
  </symbol>
  <symbol fill="none" xmlns="http://www.w3.org/2000/svg" viewBox="0 0 29 28" id="blurStar">
    <path d="M14.2659 0L17.6336 10.3647H28.5317L19.7149 16.7705L23.0826 27.1353L14.2659 20.7295L5.44907 27.1353L8.81678 16.7705L5.72205e-06 10.3647H10.8981L14.2659 0Z" fill="#0090FF"></path>
  </symbol>
  <symbol fill="none" xmlns="http://www.w3.org/2000/svg" viewBox="0 0 29 28" id="GrayStar">
    <path d="M14.2658 0L17.6335 10.3647H28.5317L19.7149 16.7705L23.0826 27.1353L14.2658 20.7295L5.44906 27.1353L8.81677 16.7705L-9.53674e-06 10.3647H10.8981L14.2658 0Z" fill="#D9D9D9"></path>
  </symbol>
</svg>







